<svg viewBox="0 0 18 18" fill="none" xmlns="http://www.w3.org/2000/svg" preserveAspectRatio="xMidYMin meet"><path d="M12.389 2.323v13.155c0 1.472 1.015 2.292 2.092 2.292.997 0 2.093-.697 2.093-2.292V2.422c0-1.349-.996-2.192-2.093-2.192-1.096 0-2.092.93-2.092 2.093Z" fill="#F9AB00"/><path d="M6.907 9v6.478c0 1.472 1.016 2.292 2.093 2.292.997 0 2.093-.697 2.093-2.292V9.1c0-1.35-.997-2.193-2.093-2.193S6.907 7.837 6.907 9ZM3.519 17.77a2.093 2.093 0 1 0 0-4.186 2.093 2.093 0 0 0 0 4.186Z" fill="#E37400"/></svg>