<svg id="paypal" xmlns="http://www.w3.org/2000/svg" viewBox="0 0 50 50" preserveAspectRatio="xMidYMin meet"><defs><style>.cls-1{fill:#003087}</style></defs><path class="cls-1" d="m16.34 48.35.82-5.4H6.2l6.21-40.22a.55.55 0 0 1 .17-.33.55.55 0 0 0 .32-.17h15.38c5.06 0 8.66 1.15 10.46 3.28a6.43 6.43 0 0 1 1.64 3.1 9.46 9.46 0 0 1 0 4.25v1.31l.81.49A7.24 7.24 0 0 1 43 16a6.76 6.76 0 0 1 1.47 3.11 14.5 14.5 0 0 1-.16 4.58 13.45 13.45 0 0 1-2 5.23 11.5 11.5 0 0 1-2.94 3.27A10.47 10.47 0 0 1 35.31 34a22.33 22.33 0 0 1-5.07.65h-1.15a4 4 0 0 0-2.29.82 2.81 2.81 0 0 0-1.14 2.13l-.16.49-1.5 9.6V48c0 .16 0 .16-.16.16h-.14c0 .19-7.36.19-7.36.19Z"/><path d="M42 13.19V14c-2 10.46-9 13.9-17.82 13.9h-4.57a2.13 2.13 0 0 0-2.13 1.8l-2.29 14.56-.65 4.09a1.16 1.16 0 0 0 1.14 1.31h8a1.94 1.94 0 0 0 2-1.64v-.33l1.47-9.48.16-.49a2 2 0 0 1 2-1.64h1.09c7.69 0 13.74-3.1 15.54-12.26.81-3.76.32-7-1.64-9.16a7.93 7.93 0 0 0-2.3-1.47Z" style="fill:#0070e0"/><path d="M40.05 12.37a2.35 2.35 0 0 0-1-.32c-.33 0-.66-.17-1-.17a30.06 30.06 0 0 0-3.93-.32H22.06a1.26 1.26 0 0 0-.82.16 2.09 2.09 0 0 0-1.14 1.47l-2.62 16.19v.49a2.12 2.12 0 0 1 2.13-1.8h4.58c8.83 0 15.7-3.6 17.82-13.9v-1a6.53 6.53 0 0 0-1.63-.65.51.51 0 0 0-.33-.15Z" style="fill:#001c64"/><path class="cls-1" d="M20.1 13.19a2.09 2.09 0 0 1 1.14-1.47 1.51 1.51 0 0 1 .82-.16h12.1a27.89 27.89 0 0 1 3.93.32c.32 0 .65.17 1 .17a2.35 2.35 0 0 1 1 .32c.16 0 .33.17.49.17.65.16 1.14.49 1.64.65.65-3.76 0-6.38-2.13-8.83C37.76 1.74 33.67.6 28.28.6H12.9a2.26 2.26 0 0 0-2.12 1.8L4.4 43a1.25 1.25 0 0 0 1.31 1.47h9.48l2.29-15Z"/></svg>