<svg viewBox="0 0 18 19" fill="none" xmlns="http://www.w3.org/2000/svg" preserveAspectRatio="xMidYMin meet"><path d="M1.12 4.64a.673.673 0 0 1 .507-1.115h9.631c.089 0 .175.017.256.05L5.84 9.915 1.12 4.64Z" fill="url(#a)"/><path d="M11.267 16.306h-9.65a.673.673 0 0 1-.491-1.121l10.387-11.61a.672.672 0 0 1 .246.174l5.116 5.718a.673.673 0 0 1 .005.892l-5.125 5.728a.673.673 0 0 1-.488.22Z" fill="url(#b)"/><path d="M14.418 6.72 5.84 16.306H1.618a.673.673 0 0 1-.492-1.121l10.387-11.61a.672.672 0 0 1 .246.174l2.659 2.971Z" fill="url(#c)"/><defs><linearGradient id="a" x1="8.195" y1="11.093" x2="5.841" y2="3.525" gradientUnits="userSpaceOnUse"><stop stop-color="#0D36A5"/><stop offset="1" stop-color="#1152D4"/></linearGradient><linearGradient id="b" x1="8.7" y1="3.525" x2="8.7" y2="16.306" gradientUnits="userSpaceOnUse"><stop stop-color="#84CAFF"/><stop offset="1" stop-color="#61B1FB"/></linearGradient><linearGradient id="c" x1="7.27" y1="3.525" x2="7.27" y2="16.306" gradientUnits="userSpaceOnUse"><stop stop-color="#3B90F5"/><stop offset="1" stop-color="#2A78EE"/></linearGradient></defs></svg>