<svg width="600" height="600" viewBox="0 0 600 600" fill="none" xmlns="http://www.w3.org/2000/svg">
<path d="M249.337 91.0819C179.005 109.59 129.777 101.98 100.378 89.4818C99.5177 92.1373 99.0527 94.9709 99.0527 97.913V192.607C99.0527 207.697 111.286 219.931 126.377 219.931H413.284C428.375 219.931 440.609 207.698 440.609 192.607V97.913C440.609 96.1572 440.443 94.44 440.127 92.7762C390.145 80.2218 319.846 72.527 249.337 91.0819Z" fill="#94CC3F"/>
<path d="M303.986 371.157H235.675V548.767H303.986V371.157Z" fill="#94CC3F"/>
<path d="M459.96 119.545V78.558C459.96 63.4671 447.727 51.2335 432.636 51.2335H145.729C130.638 51.2335 118.404 63.4671 118.404 78.5579V160.531C118.404 175.622 130.638 187.856 145.729 187.856H432.636C447.727 187.856 459.96 175.622 459.96 160.531V119.545ZM459.96 119.545H500.947V235.674L289.182 290.323V351.803M289.182 351.803H255.027V529.412H323.338V351.803H289.182Z" stroke="#347208" stroke-width="12.7201" stroke-linejoin="round"/>
</svg>
