<svg width="94" height="122" viewBox="0 0 94 122" fill="none" xmlns="http://www.w3.org/2000/svg">
<path d="M8.19995 90.0499L47.7 110.15L85.7 90.0499V11.45H8.19995V90.0499Z" fill="white"/>
<path d="M86.4999 11.75L7.3999 91.45L48.3999 111.75L86.4999 92.25V11.75Z" fill="#F2F3F2"/>
<path d="M5.59985 37.65V91.75L6.99985 92.45L46.4999 112.55L47.6999 113.15L48.8999 112.55L86.9999 92.45L88.3999 91.75V8.84998H5.59985V37.65ZM8.19985 90.25V11.45H85.7999V90.25L47.6999 110.35L8.19985 90.25Z" fill="#DCDEDC"/>
<path d="M46.9999 12.75C47.3999 12.75 47.7999 12.75 48.1999 12.85L46.9999 15.15C45.1999 15.05 43.5999 16.45 43.4999 18.25C43.3999 20.05 44.7999 21.65 46.5999 21.75H46.9999C47.7999 21.75 48.5999 21.45 49.1999 20.95L50.4999 23.15C49.4999 23.85 48.2999 24.25 46.9999 24.25C43.7999 24.35 41.0999 21.95 40.9999 18.75C40.8999 15.55 43.2999 12.85 46.4999 12.75H46.9999ZM51.0999 17.65L52.5999 20.15L51.0999 22.55L49.6999 20.15H46.7999L48.2999 17.65H51.0999ZM48.6999 16.75C48.6999 16.35 48.7999 15.95 48.9999 15.65C49.1999 15.35 49.5999 15.05 49.8999 14.85L50.0999 14.75C50.4999 14.55 50.5999 14.45 50.5999 14.25C50.5999 14.05 50.2999 13.85 50.0999 13.85C49.6999 13.85 49.3999 14.05 49.1999 14.45L48.6999 13.95C48.7999 13.75 48.9999 13.55 49.1999 13.35C49.4999 13.15 49.7999 13.15 50.0999 13.15C50.3999 13.15 50.7999 13.25 50.9999 13.45C51.1999 13.65 51.3999 13.95 51.3999 14.25C51.3999 14.75 51.0999 15.15 50.4999 15.35L50.1999 15.55C49.8999 15.75 49.6999 15.85 49.5999 16.15H51.3999V16.85L48.6999 16.75ZM46.9999 29.25L56.4999 23.85V8.84998H37.3999V23.75L46.9999 29.25Z" fill="#FF492C"/>
<path d="M23.4 49.25V40.45C23.4 40.35 23.5 40.25 23.6 40.25H25.9C26 40.25 26.1 40.35 26.1 40.45V49.25C26.1 50.55 27 51.55 28.4 51.55C29.8 51.55 30.7 50.65 30.7 49.25V40.45C30.7 40.35 30.8 40.25 30.9 40.25H33.1999C33.2999 40.25 33.4 40.35 33.4 40.45V49.25C33.4 52.05 31.4 53.85 28.4 53.85C25.4 53.85 23.4 51.95 23.4 49.25ZM35.1 50.95V50.75C35.1 50.65 35.2 50.55 35.3 50.55H37.4C37.5 50.55 37.6 50.65 37.6 50.75C37.6 51.35 38.3 51.75 39.3 51.75C40.2 51.75 40.8 51.35 40.8 50.85C40.8 50.05 39.3 50.05 37.9 49.55C36.6 49.15 35.1999 48.45 35.1999 46.75C35.1999 44.85 36.8 43.65 39.3 43.65C41.8 43.65 43.4 44.95 43.4 46.75C43.4 46.85 43.2999 46.95 43.1999 46.95H41.1C41 46.95 40.9 46.85 40.9 46.75C40.9 46.15 40.3 45.75 39.3 45.75C38.5 45.75 37.9 46.05 37.9 46.65C37.9 47.45 39.1999 47.45 40.6999 47.95C42.1999 48.35 43.6999 49.05 43.6999 50.85C43.6999 52.75 42 53.85 39.5 53.85C36.8 53.85 35.1 52.65 35.1 50.95ZM54 49.35C54 49.55 53.9 49.55 53.7 49.55H47.7C47.6 49.55 47.6 49.55 47.6 49.65C47.6 49.95 47.6999 50.15 47.7999 50.45C48.0999 51.15 48.6999 51.55 49.7999 51.55C50.6999 51.55 51.2999 51.15 51.7999 50.55C51.8999 50.45 52 50.35 52.1 50.55L53.5 51.95C53.6 52.05 53.6 52.15 53.5 52.25C52.6 53.35 51.2 53.95 49.6 53.95C47.4 53.95 45.8999 52.85 45.1999 51.05C44.8999 50.35 44.8 49.65 44.8 48.65C44.8 47.95 44.9 47.25 45.1 46.65C45.7 44.85 47.1999 43.65 49.2999 43.65C51.8999 43.65 53.4999 45.35 53.7999 47.75C53.9999 48.25 54 48.75 54 49.35ZM47.7999 47.05C47.6999 47.25 47.7 47.45 47.7 47.65C47.7 47.75 47.6999 47.75 47.7999 47.75H51.1C51.2 47.75 51.2 47.75 51.2 47.65C51.2 47.45 51.1 47.25 51.1 47.15C50.9 46.35 50.2999 45.95 49.3999 45.95C48.5999 45.95 48.0999 46.35 47.7999 47.05ZM61.7999 43.95C61.8999 44.05 61.8999 44.15 61.8999 44.25L61.5 46.45C61.5 46.65 61.4 46.65 61.2 46.55C60.9 46.45 60.5 46.45 60.1 46.45C59.2 46.55 58.3999 47.15 58.3999 48.15V53.45C58.3999 53.55 58.3 53.65 58.2 53.65H55.8999C55.7999 53.65 55.7 53.55 55.7 53.45V44.05C55.7 43.95 55.7999 43.85 55.8999 43.85H58.2C58.3 43.85 58.3999 43.95 58.3999 44.05V44.75C58.3999 44.85 58.5 44.85 58.5 44.85C59 44.15 59.7 43.65 60.6 43.65C61.2 43.65 61.4999 43.75 61.7999 43.95ZM62.6 50.95V50.75C62.6 50.65 62.6999 50.55 62.7999 50.55H64.9C65 50.55 65.1 50.65 65.1 50.75C65.1 51.35 65.7999 51.75 66.7999 51.75C67.6999 51.75 68.2999 51.35 68.2999 50.85C68.2999 50.05 66.8 50.05 65.4 49.55C64.1 49.15 62.7 48.45 62.7 46.75C62.7 44.85 64.2999 43.65 66.7999 43.65C69.2999 43.65 70.9 44.95 70.9 46.75C70.9 46.85 70.8 46.95 70.7 46.95H68.6C68.5 46.95 68.4 46.85 68.4 46.75C68.4 46.15 67.7999 45.75 66.7999 45.75C65.9999 45.75 65.4 46.05 65.4 46.65C65.4 47.45 66.7 47.45 68.2 47.95C69.7 48.35 71.2 49.05 71.2 50.85C71.2 52.75 69.5 53.85 67 53.85C64.3 53.85 62.6 52.65 62.6 50.95ZM14.7 69.65V56.65C14.7 56.55 14.8 56.45 14.9 56.45H17.2C17.3 56.45 17.4 56.55 17.4 56.65V67.45C17.4 67.55 17.4 67.55 17.5 67.55H23.8C23.9 67.55 24 67.65 24 67.75V69.65C24 69.75 23.9 69.85 23.8 69.85H14.9C14.8 69.85 14.7 69.75 14.7 69.65ZM25.6 66.85C25.4 66.25 25.3 65.55 25.3 64.85C25.3 64.15 25.4 63.35 25.6 62.85C26.2 60.95 27.8 59.85 30 59.85C32.1 59.85 33.7 61.05 34.3 62.85C34.5 63.45 34.6 64.15 34.6 64.85C34.6 65.55 34.5 66.25 34.3 66.75C33.7 68.75 32.1 69.95 30 69.95C27.8 70.05 26.1 68.85 25.6 66.85ZM31.7 66.25C31.8 65.85 31.9 65.35 31.9 64.95C31.9 64.45 31.8 63.95 31.7 63.55C31.4 62.65 30.8 62.15 30 62.15C29.1 62.15 28.5 62.65 28.3 63.55C28.1 63.85 28.1 64.35 28.1 64.95C28.1 65.45 28.1 65.95 28.2 66.25C28.5 67.15 29.1 67.65 30 67.65C30.8 67.75 31.4 67.15 31.7 66.25ZM38.3 69.65L35.1999 60.15C35.0999 59.95 35.2 59.85 35.4 59.85H37.9C38 59.85 38.0999 59.95 38.1999 60.05L39.8 65.85C39.8 65.95 39.9 65.95 39.9 65.85L41.5 60.05C41.5 59.95 41.6 59.85 41.8 59.85H44.3C44.5 59.85 44.6 59.95 44.5 60.15L41.4 69.55C41.4 69.65 41.3 69.75 41.1 69.75H38.6C38.4 69.85 38.3 69.85 38.3 69.65ZM54.1 65.55C54.1 65.75 53.9999 65.75 53.7999 65.75H47.7999C47.6999 65.75 47.7 65.75 47.7 65.85C47.7 66.15 47.7999 66.35 47.8999 66.65C48.1999 67.35 48.7999 67.75 49.8999 67.75C50.7999 67.75 51.3999 67.35 51.8999 66.75C51.9999 66.65 52.1 66.55 52.2 66.75L53.6 68.15C53.7 68.25 53.7 68.35 53.6 68.45C52.7 69.55 51.3 70.15 49.7 70.15C47.5 70.15 46 69.05 45.3 67.25C45 66.55 44.9 65.85 44.9 64.85C44.9 64.15 44.9999 63.45 45.1999 62.85C45.7999 61.05 47.2999 59.85 49.3999 59.85C51.9999 59.85 53.5999 61.55 53.8999 63.95C54.0999 64.45 54.1 64.95 54.1 65.55ZM47.8999 63.25C47.7999 63.45 47.7999 63.65 47.7999 63.85C47.7999 63.95 47.7999 63.95 47.8999 63.95H51.2C51.3 63.95 51.2999 63.95 51.2999 63.85C51.2999 63.65 51.2 63.45 51.2 63.35C51 62.55 50.4 62.15 49.5 62.15C48.6 62.15 48.0999 62.55 47.8999 63.25ZM59.7 65.45V56.65C59.7 56.55 59.7999 56.45 59.8999 56.45H62.2C62.3 56.45 62.3999 56.55 62.3999 56.65V65.45C62.3999 66.75 63.3 67.75 64.7 67.75C66.1 67.75 67 66.85 67 65.45V56.65C67 56.55 67.1 56.45 67.2 56.45H69.5C69.6 56.45 69.7 56.55 69.7 56.65V65.45C69.7 68.25 67.7 70.05 64.7 70.05C61.7 70.05 59.7 68.15 59.7 65.45ZM71.4 67.15V66.95C71.4 66.85 71.5 66.75 71.6 66.75H73.7C73.8 66.75 73.9 66.85 73.9 66.95C73.9 67.55 74.6 67.95 75.6 67.95C76.5 67.95 77.1 67.55 77.1 67.05C77.1 66.25 75.6 66.25 74.2 65.75C72.9 65.35 71.5 64.65 71.5 62.95C71.5 61.05 73.1 59.85 75.6 59.85C78.1 59.85 79.7 61.15 79.7 62.95C79.7 63.05 79.6 63.15 79.5 63.15H77.4C77.3 63.15 77.2 63.05 77.2 62.95C77.2 62.35 76.6 61.95 75.6 61.95C74.8 61.95 74.2 62.25 74.2 62.85C74.2 63.65 75.5 63.65 77 64.15C78.5 64.55 80 65.25 80 67.05C80 68.95 78.2999 70.05 75.7999 70.05C73.0999 70.05 71.4 68.85 71.4 67.15Z" fill="#252530"/>
<path d="M19.3999 81.35H39.3999V82.15H19.3999V81.35ZM55.1999 81.35H75.1999V82.15H55.1999V81.35Z" fill="#DCDEDC"/>
<path d="M42.5 80.45L45.6 79.95L47.2 76.85L48.7 79.85L52 80.45L49.7 82.75L50.2 86.05L47.2 84.65L44.2 86.05L44.6 82.75L42.5 80.45Z" fill="#DCDEDC"/>
</svg>
