<svg xmlns="http://www.w3.org/2000/svg" fill="none" viewBox="0 0 61 61" preserveAspectRatio="xMidYMin meet"><rect width="60.554" height="60.554" fill="#FF4F00" rx="10.496"/><path fill="#FFFDF9" d="M42.221 35.215c.77.432 1.641.646 2.523.622a5.57 5.57 0 0 0 2.108-.342 3.17 3.17 0 0 0 1.316-.901c.335-.392.576-.855.707-1.353l-2.303-.646c-.112.32-.315.6-.585.804a1.803 1.803 0 0 1-1.219.341 1.962 1.962 0 0 1-1.633-.67 2.997 2.997 0 0 1-.512-1.62h6.3a4.57 4.57 0 0 0 0-.549v-.488a5.23 5.23 0 0 0-.462-2.242 3.657 3.657 0 0 0-1.402-1.535 4.643 4.643 0 0 0-2.364-.549 4.754 4.754 0 0 0-3.51 1.219 4.875 4.875 0 0 0-1.218 3.522c-.02.906.177 1.804.572 2.62a4.07 4.07 0 0 0 1.682 1.767Zm2.437-7.117c1.22 0 1.78.658 1.865 1.986h-3.9c.036-.473.2-.928.476-1.316a1.829 1.829 0 0 1 1.608-.634l-.049-.036Zm-25.924 2.245a3.73 3.73 0 0 0-2.632.768 2.646 2.646 0 0 0-.804 1.998 2.437 2.437 0 0 0 .828 2.023 3.35 3.35 0 0 0 2.182.67 2.741 2.741 0 0 0 2.096-.877c.292-.326.523-.701.682-1.109h.159l.28 1.792h2.255v-5.74a3.79 3.79 0 0 0-.927-2.742 4.118 4.118 0 0 0-3.046-.975 5.727 5.727 0 0 0-2.072.329c-.526.188-.99.517-1.34.95-.33.415-.553.905-.646 1.426l2.498.354a1.22 1.22 0 0 1 .487-.634c.29-.161.62-.237.95-.22a1.426 1.426 0 0 1 1.11.39c.242.332.363.736.341 1.146v.45h-2.4Zm.451 3.315a1.45 1.45 0 0 1-1.011-.28 1 1 0 0 1-.28-.72.95.95 0 0 1 .28-.694c.222-.182.505-.273.792-.256h2.17v.353a1.438 1.438 0 0 1-.537 1.146c-.4.32-.902.484-1.414.463v-.012Zm19.453-7.29h-2.67v9.237h2.67v-9.237Zm-1.303-1.242a1.476 1.476 0 0 0 1.084-.427c.277-.297.426-.69.415-1.096a1.524 1.524 0 0 0-.415-1.085 1.478 1.478 0 0 0-1.084-.414 1.498 1.498 0 0 0-1.097.414 1.476 1.476 0 0 0-.427 1.085 1.463 1.463 0 0 0 1.524 1.523Zm-9.262 8.677h.122c.076.203.17.399.28.585.275.504.701.91 1.219 1.158.453.23.954.347 1.462.341a2.9 2.9 0 0 0 2.547-1.304 6.36 6.36 0 0 0 .902-3.656 6.203 6.203 0 0 0-.89-3.546 3.01 3.01 0 0 0-2.62-1.219 2.814 2.814 0 0 0-2.132.865 3.839 3.839 0 0 0-.83 1.414h-.145l-.293-2.035h-2.279V38.3h2.669l-.012-4.497Zm1.95-5.289a1.681 1.681 0 0 1 1.474.646c.335.535.497 1.161.464 1.791a3.169 3.169 0 0 1-.476 1.865 1.632 1.632 0 0 1-1.462.67 1.693 1.693 0 0 1-1.426-.645 2.778 2.778 0 0 1-.524-1.792v-.17a2.58 2.58 0 0 1 .524-1.756 1.767 1.767 0 0 1 1.426-.609ZM14.477 33.35H9.504l-.085-.28 4.972-4.436v-2.266H6.165v2.266h4.655l.11.293-4.875 4.424v2.267h8.531l-.11-2.267Zm38.543-2.472a1.632 1.632 0 0 1 1.975-1.852h1.012v-2.657h-.585a2.157 2.157 0 0 0-1.78.804 3.414 3.414 0 0 0-.585 1.22h-.134l-.292-2.036h-2.28v9.25h2.67v-4.729Z"/></svg>